<?xml version="1.0" encoding="UTF-8"?>
<svg xmlns="http://www.w3.org/2000/svg" id="Layer_1" data-name="Layer 1" viewBox="0 0 24 24">
  <path d="M22.958,11.805c-.672-2.302-1.712-4.16-3.09-5.553l1.442-1.442c.586-.586,.586-1.536,0-2.121-.586-.586-1.535-.586-2.121,0l-1.762,1.762c-1.55-.807-3.362-1.227-5.414-1.245-.006,0-.011,0-.017,0-5.576,.046-9.364,3.002-10.956,8.546-.051,.18-.052,.371,0,.55,.657,2.301,1.668,4.139,3.027,5.509l-1.379,1.379c-.586,.586-.572,1.522,0,2.121,.787,.825,1.828,.293,2.121,0l1.716-1.716c1.552,.782,3.382,1.183,5.486,1.2,5.669-.044,9.352-2.882,10.946-8.433,.053-.182,.052-.375,0-.556Zm-15.846,.177c.058-3.089,1.789-4.851,4.881-4.87,.886,.006,1.665,.159,2.325,.448l-1.604,1.604c-.222-.033-.462-.05-.721-.052-1.974,.012-2.84,.876-2.881,2.888,.005,.256,.023,.493,.055,.712l-1.612,1.612c-.277-.653-.454-1.746-.443-2.341Zm4.894,4.905c-.896-.005-1.677-.153-2.337-.436l1.612-1.612c.223,.03,.464,.046,.725,.048,2.006-.012,2.845-.854,2.882-2.906-.004-.248-.023-.479-.055-.694l1.601-1.601c.284,.654,.438,1.422,.454,2.296-.058,3.158-1.791,4.887-4.882,4.905Z"/>
</svg>
